<?xml version='1.0' encoding='UTF-8' standalone='no'?>
<svg viewBox="0 0 576 432" height="432pt" xmlns="http://www.w3.org/2000/svg" xmlns:xlink="http://www.w3.org/1999/xlink" width="576pt">
 <title>gl2ps_renderer figure</title>
 <desc>
Creator: GL2PS 1.4.2, (C) 1999-2020 C. Geuzaine
For: Octave
CreationDate: Tue May  3 14:46:07 2022
</desc>
 <defs/>
 <polygon points="0,0 576,0 576,432 0,432" fill="#ffffff"/>
 <g>
  <polygon points="0,432 576,432 576,0 0,0" shape-rendering="crispEdges" fill="#ffffff"/>
  <clipPath id="cp00576432">
   <polygon points="0,432 576,432 576,0 0,0"/>
  </clipPath>
  <g clip-path="url(#cp00576432)">
   <polygon points="74.8799,384.479 521.28,384.479 521.28,32.3984 74.8799,32.3984" shape-rendering="crispEdges" fill="#ffffff"/>
   <polyline stroke-width="0.5" points="74.8799,384.479 74.8799,380.014" fill="none" stroke="#262626" stroke-linejoin="miter" stroke-linecap="butt"/>
   <polyline stroke-width="0.5" points="74.8799,32.3984 74.8799,36.8647" fill="none" stroke="#262626" stroke-linejoin="miter" stroke-linecap="butt"/>
   <polyline stroke-width="0.5" points="186.48,384.479 186.48,380.014" fill="none" stroke="#262626" stroke-linejoin="miter" stroke-linecap="butt"/>
   <polyline stroke-width="0.5" points="186.48,32.3984 186.48,36.8647" fill="none" stroke="#262626" stroke-linejoin="miter" stroke-linecap="butt"/>
   <polyline stroke-width="0.5" points="298.08,384.479 298.08,380.014" fill="none" stroke="#262626" stroke-linejoin="miter" stroke-linecap="butt"/>
   <polyline stroke-width="0.5" points="298.08,32.3984 298.08,36.8647" fill="none" stroke="#262626" stroke-linejoin="miter" stroke-linecap="butt"/>
   <polyline stroke-width="0.5" points="409.68,384.479 409.68,380.014" fill="none" stroke="#262626" stroke-linejoin="miter" stroke-linecap="butt"/>
   <polyline stroke-width="0.5" points="409.68,32.3984 409.68,36.8647" fill="none" stroke="#262626" stroke-linejoin="miter" stroke-linecap="butt"/>
   <polyline stroke-width="0.5" points="521.28,384.479 521.28,380.014" fill="none" stroke="#262626" stroke-linejoin="miter" stroke-linecap="butt"/>
   <polyline stroke-width="0.5" points="521.28,32.3984 521.28,36.8647" fill="none" stroke="#262626" stroke-linejoin="miter" stroke-linecap="butt"/>
   <text font-weight="normal" xml:space="preserve" font-family="FreeSans" font-style="normal" transform="translate(71.88,399.982) rotate(-0,3,-8)" font-size="10">
    <tspan x="0 " fill="rgb(38,38,38)" y="-0">0</tspan>
   </text>
   <text font-weight="normal" xml:space="preserve" font-family="FreeSans" font-style="normal" transform="translate(180.48,399.982) rotate(-0,6,-8)" font-size="10">
    <tspan x="0 6 " fill="rgb(38,38,38)" y="-0">50</tspan>
   </text>
   <text font-weight="normal" xml:space="preserve" font-family="FreeSans" font-style="normal" transform="translate(289.08,399.982) rotate(-0,9,-8)" font-size="10">
    <tspan x="0 6 12 " fill="rgb(38,38,38)" y="-0">100</tspan>
   </text>
   <text font-weight="normal" xml:space="preserve" font-family="FreeSans" font-style="normal" transform="translate(400.68,399.982) rotate(-0,9,-8)" font-size="10">
    <tspan x="0 6 12 " fill="rgb(38,38,38)" y="-0">150</tspan>
   </text>
   <text font-weight="normal" xml:space="preserve" font-family="FreeSans" font-style="normal" transform="translate(512.28,399.982) rotate(-0,9,-8)" font-size="10">
    <tspan x="0 6 12 " fill="rgb(38,38,38)" y="-0">200</tspan>
   </text>
   <polyline stroke-width="0.5" points="74.8799,384.479 79.3481,384.479" fill="none" stroke="#262626" stroke-linejoin="miter" stroke-linecap="butt"/>
   <polyline stroke-width="0.5" points="521.28,384.479 516.812,384.479" fill="none" stroke="#262626" stroke-linejoin="miter" stroke-linecap="butt"/>
   <polyline stroke-width="0.5" points="74.8799,314.063 79.3481,314.063" fill="none" stroke="#262626" stroke-linejoin="miter" stroke-linecap="butt"/>
   <polyline stroke-width="0.5" points="521.28,314.063 516.812,314.063" fill="none" stroke="#262626" stroke-linejoin="miter" stroke-linecap="butt"/>
   <polyline stroke-width="0.5" points="74.8799,243.647 79.3481,243.647" fill="none" stroke="#262626" stroke-linejoin="miter" stroke-linecap="butt"/>
   <polyline stroke-width="0.5" points="521.28,243.647 516.812,243.647" fill="none" stroke="#262626" stroke-linejoin="miter" stroke-linecap="butt"/>
   <polyline stroke-width="0.5" points="74.8799,173.231 79.3481,173.231" fill="none" stroke="#262626" stroke-linejoin="miter" stroke-linecap="butt"/>
   <polyline stroke-width="0.5" points="521.28,173.231 516.812,173.231" fill="none" stroke="#262626" stroke-linejoin="miter" stroke-linecap="butt"/>
   <polyline stroke-width="0.5" points="74.8799,102.815 79.3481,102.815" fill="none" stroke="#262626" stroke-linejoin="miter" stroke-linecap="butt"/>
   <polyline stroke-width="0.5" points="521.28,102.815 516.812,102.815" fill="none" stroke="#262626" stroke-linejoin="miter" stroke-linecap="butt"/>
   <polyline stroke-width="0.5" points="74.8799,32.3984 79.3481,32.3984" fill="none" stroke="#262626" stroke-linejoin="miter" stroke-linecap="butt"/>
   <polyline stroke-width="0.5" points="521.28,32.3984 516.812,32.3984" fill="none" stroke="#262626" stroke-linejoin="miter" stroke-linecap="butt"/>
   <text font-weight="normal" xml:space="preserve" font-family="FreeSans" font-style="normal" transform="translate(48.8755,388.48) rotate(-0,21,-4)" font-size="10">
    <tspan x="0 6 12 15 " fill="rgb(38,38,38)" y="-0">97.5</tspan>
   </text>
   <text font-weight="normal" xml:space="preserve" font-family="FreeSans" font-style="normal" transform="translate(57.8755,318.064) rotate(-0,12,-4)" font-size="10">
    <tspan x="0 6 " fill="rgb(38,38,38)" y="-0">98</tspan>
   </text>
   <text font-weight="normal" xml:space="preserve" font-family="FreeSans" font-style="normal" transform="translate(48.8755,247.648) rotate(-0,21,-4)" font-size="10">
    <tspan x="0 6 12 15 " fill="rgb(38,38,38)" y="-0">98.5</tspan>
   </text>
   <text font-weight="normal" xml:space="preserve" font-family="FreeSans" font-style="normal" transform="translate(57.8755,177.232) rotate(-0,12,-4)" font-size="10">
    <tspan x="0 6 " fill="rgb(38,38,38)" y="-0">99</tspan>
   </text>
   <text font-weight="normal" xml:space="preserve" font-family="FreeSans" font-style="normal" transform="translate(48.8755,106.816) rotate(-0,21,-4)" font-size="10">
    <tspan x="0 6 12 15 " fill="rgb(38,38,38)" y="-0">99.5</tspan>
   </text>
   <text font-weight="normal" xml:space="preserve" font-family="FreeSans" font-style="normal" transform="translate(51.8755,36.4) rotate(-0,18,-4)" font-size="10">
    <tspan x="0 6 12 " fill="rgb(38,38,38)" y="-0">100</tspan>
   </text>
   <polyline stroke-width="0.5" stroke-dasharray="16,0" points="74.8799,384.479 521.28,384.479" fill="none" stroke="#262626" stroke-linejoin="miter" stroke-linecap="square"/>
   <polyline stroke-width="0.5" stroke-dasharray="16,0" points="74.8799,32.3984 521.28,32.3984" fill="none" stroke="#262626" stroke-linejoin="miter" stroke-linecap="square"/>
   <polyline stroke-width="0.5" stroke-dasharray="16,0" points="74.8799,384.479 74.8799,32.3984" fill="none" stroke="#262626" stroke-linejoin="miter" stroke-linecap="square"/>
   <polyline stroke-width="0.5" stroke-dasharray="16,0" points="521.28,384.479 521.28,32.3984" fill="none" stroke="#262626" stroke-linejoin="miter" stroke-linecap="square"/>
   <polyline stroke-width="0.5" points="77.1118,105.156 79.3438,105.156 81.5762,105.599 83.8081,106.482 86.04,107.811 88.272,109.579 90.5039,111.79 92.7358,114.442 94.9678,117.535 97.2002,121.066 99.4321,125.037 101.664,129.441 103.896,134.281 106.128,139.552 108.36,145.252 110.592,151.371 112.824,157.908 115.056,164.851 117.288,172.194 119.52,179.918 121.752,188.011 123.984,196.45 126.216,205.208 128.448,214.25 130.68,223.533 132.912,233.007 135.144,242.604 137.376,252.25 139.608,261.844 141.84,271.272 144.072,280.405 146.304,289.088 148.536,297.15 150.768,304.413 153,310.69 155.232,315.801 157.464,319.582 159.696,321.906 161.928,322.691 164.16,321.906 166.392,319.582 168.624,315.801 170.856,310.69 173.088,304.413 175.32,297.15 177.552,289.088 179.784,280.405 182.016,271.272 184.248,261.844 186.48,252.25 188.712,242.604 190.944,233.007 193.176,223.533 195.408,214.25 197.64,205.208 199.872,196.45 202.104,188.011 204.336,179.918 206.568,172.194 208.8,164.851 211.032,157.908 213.264,151.371 215.496,145.252 217.728,139.552 219.96,134.281 222.192,129.441 224.424,125.037 226.656,121.066 228.888,117.535 231.12,114.442 233.352,111.79 235.584,109.579 237.816,107.811 240.048,106.482 242.28,105.599 244.512,105.156 246.744,105.156 248.976,105.599 251.208,106.482 253.44,107.811 255.672,109.579 257.904,111.79 260.136,114.442 262.368,117.535 264.6,121.066 266.832,125.037 269.064,129.441 271.296,134.281 273.528,139.552 275.76,145.252 277.992,151.371 280.224,157.908 282.456,164.851 284.688,172.194 286.92,179.918 289.152,188.011 291.384,196.45 293.616,205.208 295.848,214.25 298.08,223.533 300.312,233.007 302.544,242.604 304.776,252.25 307.008,261.844 309.24,271.272 311.472,280.405 313.704,289.088 315.936,297.15 318.168,304.413 320.4,310.69 322.632,315.801 324.864,319.582 327.096,321.906 329.328,322.691 331.56,321.906 333.792,319.582 336.024,315.801 338.256,310.69 340.488,304.413 342.72,297.15 344.952,289.088 347.184,280.405 349.416,271.272 351.648,261.844 353.88,252.25 356.112,242.604 358.344,233.007 360.576,223.533 362.808,214.25 365.04,205.208 367.272,196.45 369.504,188.011 371.736,179.918 373.968,172.194 376.2,164.851 378.432,157.908 380.664,151.371 382.896,145.252 385.128,139.552 387.36,134.281 389.592,129.441 391.824,125.037 394.056,121.066 396.288,117.535 398.52,114.442 400.752,111.79 402.984,109.579 405.216,107.811 407.448,106.482 409.68,105.599" fill="none" stroke="#0071bc" stroke-linejoin="round" stroke-linecap="butt"/>
  </g>
 </g>
</svg>
