<?xml version='1.0' encoding='UTF-8' standalone='no'?>
<svg height="432pt" width="576pt" xmlns="http://www.w3.org/2000/svg" xmlns:xlink="http://www.w3.org/1999/xlink" viewBox="0 0 576 432">
 <title>gl2ps_renderer figure</title>
 <desc>
Creator: GL2PS 1.4.2, (C) 1999-2020 C. Geuzaine
For: Octave
CreationDate: Tue May  3 14:46:38 2022
</desc>
 <defs/>
 <polygon points="0,0 576,0 576,432 0,432" fill="#ffffff"/>
 <g>
  <polygon points="0,432 576,432 576,0 0,0" shape-rendering="crispEdges" fill="#ffffff"/>
  <clipPath id="cp00576432">
   <polygon points="0,432 576,432 576,0 0,0"/>
  </clipPath>
  <g clip-path="url(#cp00576432)">
   <polygon points="74.8799,384.48 521.28,384.48 521.28,32.3999 74.8799,32.3999" shape-rendering="crispEdges" fill="#ffffff"/>
   <polyline points="74.8799,384.48 74.8799,380.015" stroke-width="0.5" stroke="#262626" stroke-linejoin="miter" stroke-linecap="butt" fill="none"/>
   <polyline points="74.8799,32.3999 74.8799,36.8647" stroke-width="0.5" stroke="#262626" stroke-linejoin="miter" stroke-linecap="butt" fill="none"/>
   <polyline points="186.48,384.48 186.48,380.015" stroke-width="0.5" stroke="#262626" stroke-linejoin="miter" stroke-linecap="butt" fill="none"/>
   <polyline points="186.48,32.3999 186.48,36.8647" stroke-width="0.5" stroke="#262626" stroke-linejoin="miter" stroke-linecap="butt" fill="none"/>
   <polyline points="298.08,384.48 298.08,380.015" stroke-width="0.5" stroke="#262626" stroke-linejoin="miter" stroke-linecap="butt" fill="none"/>
   <polyline points="298.08,32.3999 298.08,36.8647" stroke-width="0.5" stroke="#262626" stroke-linejoin="miter" stroke-linecap="butt" fill="none"/>
   <polyline points="409.68,384.48 409.68,380.015" stroke-width="0.5" stroke="#262626" stroke-linejoin="miter" stroke-linecap="butt" fill="none"/>
   <polyline points="409.68,32.3999 409.68,36.8647" stroke-width="0.5" stroke="#262626" stroke-linejoin="miter" stroke-linecap="butt" fill="none"/>
   <polyline points="521.28,384.48 521.28,380.015" stroke-width="0.5" stroke="#262626" stroke-linejoin="miter" stroke-linecap="butt" fill="none"/>
   <polyline points="521.28,32.3999 521.28,36.8647" stroke-width="0.5" stroke="#262626" stroke-linejoin="miter" stroke-linecap="butt" fill="none"/>
   <text font-size="10" font-family="FreeSans" xml:space="preserve" transform="translate(71.88,399.982) rotate(-0,3,-8)" font-style="normal" font-weight="normal">
    <tspan y="-0" x="0 " fill="rgb(38,38,38)">0</tspan>
   </text>
   <text font-size="10" font-family="FreeSans" xml:space="preserve" transform="translate(180.48,399.982) rotate(-0,6,-8)" font-style="normal" font-weight="normal">
    <tspan y="-0" x="0 6 " fill="rgb(38,38,38)">50</tspan>
   </text>
   <text font-size="10" font-family="FreeSans" xml:space="preserve" transform="translate(289.08,399.982) rotate(-0,9,-8)" font-style="normal" font-weight="normal">
    <tspan y="-0" x="0 6 12 " fill="rgb(38,38,38)">100</tspan>
   </text>
   <text font-size="10" font-family="FreeSans" xml:space="preserve" transform="translate(400.68,399.982) rotate(-0,9,-8)" font-style="normal" font-weight="normal">
    <tspan y="-0" x="0 6 12 " fill="rgb(38,38,38)">150</tspan>
   </text>
   <text font-size="10" font-family="FreeSans" xml:space="preserve" transform="translate(512.28,399.982) rotate(-0,9,-8)" font-style="normal" font-weight="normal">
    <tspan y="-0" x="0 6 12 " fill="rgb(38,38,38)">200</tspan>
   </text>
   <polyline points="74.8799,384.48 79.3481,384.48" stroke-width="0.5" stroke="#262626" stroke-linejoin="miter" stroke-linecap="butt" fill="none"/>
   <polyline points="521.28,384.48 516.812,384.48" stroke-width="0.5" stroke="#262626" stroke-linejoin="miter" stroke-linecap="butt" fill="none"/>
   <polyline points="74.8799,296.46 79.3481,296.46" stroke-width="0.5" stroke="#262626" stroke-linejoin="miter" stroke-linecap="butt" fill="none"/>
   <polyline points="521.28,296.46 516.812,296.46" stroke-width="0.5" stroke="#262626" stroke-linejoin="miter" stroke-linecap="butt" fill="none"/>
   <polyline points="74.8799,208.44 79.3481,208.44" stroke-width="0.5" stroke="#262626" stroke-linejoin="miter" stroke-linecap="butt" fill="none"/>
   <polyline points="521.28,208.44 516.812,208.44" stroke-width="0.5" stroke="#262626" stroke-linejoin="miter" stroke-linecap="butt" fill="none"/>
   <polyline points="74.8799,120.42 79.3481,120.42" stroke-width="0.5" stroke="#262626" stroke-linejoin="miter" stroke-linecap="butt" fill="none"/>
   <polyline points="521.28,120.42 516.812,120.42" stroke-width="0.5" stroke="#262626" stroke-linejoin="miter" stroke-linecap="butt" fill="none"/>
   <polyline points="74.8799,32.3999 79.3481,32.3999" stroke-width="0.5" stroke="#262626" stroke-linejoin="miter" stroke-linecap="butt" fill="none"/>
   <polyline points="521.28,32.3999 516.812,32.3999" stroke-width="0.5" stroke="#262626" stroke-linejoin="miter" stroke-linecap="butt" fill="none"/>
   <text font-size="10" font-family="FreeSans" xml:space="preserve" transform="translate(57.8755,388.48) rotate(-0,12,-4)" font-style="normal" font-weight="normal">
    <tspan y="-0" x="0 6 " fill="rgb(38,38,38)">60</tspan>
   </text>
   <text font-size="10" font-family="FreeSans" xml:space="preserve" transform="translate(57.8755,300.46) rotate(-0,12,-4)" font-style="normal" font-weight="normal">
    <tspan y="-0" x="0 6 " fill="rgb(38,38,38)">70</tspan>
   </text>
   <text font-size="10" font-family="FreeSans" xml:space="preserve" transform="translate(57.8755,212.44) rotate(-0,12,-4)" font-style="normal" font-weight="normal">
    <tspan y="-0" x="0 6 " fill="rgb(38,38,38)">80</tspan>
   </text>
   <text font-size="10" font-family="FreeSans" xml:space="preserve" transform="translate(57.8755,124.42) rotate(-0,12,-4)" font-style="normal" font-weight="normal">
    <tspan y="-0" x="0 6 " fill="rgb(38,38,38)">90</tspan>
   </text>
   <text font-size="10" font-family="FreeSans" xml:space="preserve" transform="translate(51.8755,36.4) rotate(-0,18,-4)" font-style="normal" font-weight="normal">
    <tspan y="-0" x="0 6 12 " fill="rgb(38,38,38)">100</tspan>
   </text>
   <polyline points="74.8799,384.48 521.28,384.48" stroke-width="0.5" stroke-dasharray="16,0" stroke="#262626" stroke-linejoin="miter" stroke-linecap="square" fill="none"/>
   <polyline points="74.8799,32.3999 521.28,32.3999" stroke-width="0.5" stroke-dasharray="16,0" stroke="#262626" stroke-linejoin="miter" stroke-linecap="square" fill="none"/>
   <polyline points="74.8799,384.48 74.8799,32.3999" stroke-width="0.5" stroke-dasharray="16,0" stroke="#262626" stroke-linejoin="miter" stroke-linecap="square" fill="none"/>
   <polyline points="521.28,384.48 521.28,32.3999" stroke-width="0.5" stroke-dasharray="16,0" stroke="#262626" stroke-linejoin="miter" stroke-linecap="square" fill="none"/>
   <polyline points="77.1118,361.022 79.3438,361.001 81.5762,360.982 83.8081,360.964 86.04,360.948 88.272,360.934 90.5039,360.921 92.7358,360.912 94.9678,360.904 97.2002,360.899 99.4321,360.897 101.664,360.898 103.896,360.902 106.128,360.908 108.36,360.917 110.592,360.927 112.824,360.941 115.056,360.956 117.288,360.973 119.52,360.992 121.752,361.012 123.984,361.032 126.216,361.054 128.448,361.075 130.68,361.096 132.912,361.117 135.144,361.137 137.376,361.156 139.608,361.173 141.84,361.188 144.072,361.201 146.304,361.212 148.536,361.22 150.768,361.226 153,361.229 155.232,361.229 157.464,361.226 159.696,361.22 161.928,361.212 164.16,361.201 166.392,361.188 168.624,361.173 170.856,361.156 173.088,361.137 175.32,361.117 177.552,361.096 179.784,361.075 182.016,361.054 184.248,361.032 186.48,361.012 188.712,360.992 190.944,360.973 193.176,360.956 195.408,360.941 197.64,360.927 199.872,360.917 202.104,360.908 204.336,360.902 206.568,360.898 208.8,360.897 211.032,360.899 213.264,360.904 215.496,360.912 217.728,360.921 219.96,360.934 222.192,360.948 224.424,360.964 226.656,360.982 228.888,361.001 231.12,361.022 233.352,361.043 235.584,361.064 237.816,361.086 240.048,361.107 242.28,361.127 244.512,361.146 246.744,361.165 248.976,361.181 251.208,361.195 253.44,361.207 255.672,361.216 257.904,361.223 260.136,361.228 262.368,361.229 264.6,361.228 266.832,361.223 269.064,361.216 271.296,361.207 273.528,361.195 275.76,361.181 277.992,361.165 280.224,361.146 282.456,361.127 284.688,361.107 286.92,361.086 289.152,361.064 291.384,361.043" stroke-width="0.5" stroke="#0071bc" stroke-linejoin="round" stroke-linecap="butt" fill="none"/>
   <polyline points="77.1118,36.9473 79.3438,36.9473 81.5762,36.9751 83.8081,37.0303 86.04,37.1133 88.272,37.2236 90.5039,37.3618 92.7358,37.5278 94.9678,37.7207 97.2002,37.9419 99.4321,38.1899 101.664,38.4648 103.896,38.7676 106.128,39.0972 108.36,39.4531 110.592,39.8354 112.824,40.2441 115.056,40.6782 117.288,41.1372 119.52,41.6201 121.752,42.1255 123.984,42.6533 126.216,43.2007 128.448,43.7656 130.68,44.3457 132.912,44.938 135.144,45.5376 137.376,46.1406 139.608,46.7402 141.84,47.3296 144.072,47.9004 146.304,48.4429 148.536,48.9468 150.768,49.4009 153,49.793 155.232,50.1123 157.464,50.3486 159.696,50.4941 161.928,50.543 164.16,50.4941 166.392,50.3486 168.624,50.1123 170.856,49.793 173.088,49.4009 175.32,48.9468 177.552,48.4429 179.784,47.9004 182.016,47.3296 184.248,46.7402 186.48,46.1406 188.712,45.5376 190.944,44.938 193.176,44.3457 195.408,43.7656 197.64,43.2007 199.872,42.6533 202.104,42.1255 204.336,41.6201 206.568,41.1372 208.8,40.6782 211.032,40.2441 213.264,39.8354 215.496,39.4531 217.728,39.0972 219.96,38.7676 222.192,38.4648 224.424,38.1899 226.656,37.9419 228.888,37.7207 231.12,37.5278 233.352,37.3618 235.584,37.2236 237.816,37.1133 240.048,37.0303 242.28,36.9751 244.512,36.9473 246.744,36.9473 248.976,36.9751 251.208,37.0303 253.44,37.1133 255.672,37.2236 257.904,37.3618 260.136,37.5278 262.368,37.7207 264.6,37.9419 266.832,38.1899 269.064,38.4648 271.296,38.7676 273.528,39.0972 275.76,39.4531 277.992,39.8354 280.224,40.2441 282.456,40.6782 284.688,41.1372 286.92,41.6201 289.152,42.1255 291.384,42.6533 293.616,43.2007 295.848,43.7656 298.08,44.3457 300.312,44.938 302.544,45.5376 304.776,46.1406 307.008,46.7402 309.24,47.3296 311.472,47.9004 313.704,48.4429 315.936,48.9468 318.168,49.4009 320.4,49.793 322.632,50.1123 324.864,50.3486 327.096,50.4941 329.328,50.543 331.56,50.4941 333.792,50.3486 336.024,50.1123 338.256,49.793 340.488,49.4009 342.72,48.9468 344.952,48.4429 347.184,47.9004 349.416,47.3296 351.648,46.7402 353.88,46.1406 356.112,45.5376 358.344,44.938 360.576,44.3457 362.808,43.7656 365.04,43.2007 367.272,42.6533 369.504,42.1255 371.736,41.6201 373.968,41.1372 376.2,40.6782 378.432,40.2441 380.664,39.8354 382.896,39.4531 385.128,39.0972 387.36,38.7676 389.592,38.4648 391.824,38.1899 394.056,37.9419 396.288,37.7207 398.52,37.5278 400.752,37.3618 402.984,37.2236 405.216,37.1133 407.448,37.0303 409.68,36.9751" stroke-width="0.5" stroke="#d85218" stroke-linejoin="round" stroke-linecap="butt" fill="none"/>
  </g>
 </g>
</svg>
