<?xml version='1.0' encoding='UTF-8' standalone='no'?>
<svg xmlns:xlink="http://www.w3.org/1999/xlink" height="432pt" xmlns="http://www.w3.org/2000/svg" viewBox="0 0 576 432" width="576pt">
 <title>gl2ps_renderer figure</title>
 <desc>
Creator: GL2PS 1.4.2, (C) 1999-2020 C. Geuzaine
For: Octave
CreationDate: Fri Apr 22 15:09:11 2022
</desc>
 <defs/>
 <polygon fill="#ffffff" points="0,0 576,0 576,432 0,432"/>
 <g>
  <polygon fill="#ffffff" points="0,432 576,432 576,0 0,0" shape-rendering="crispEdges"/>
  <clipPath id="cp00576432">
   <polygon points="0,432 576,432 576,0 0,0"/>
  </clipPath>
  <g clip-path="url(#cp00576432)">
   <polygon fill="#ffffff" points="74.8799,384.48 521.28,384.48 521.28,32.3999 74.8799,32.3999" shape-rendering="crispEdges"/>
   <polyline stroke-opacity="0.15" stroke-dasharray="16,0" fill="none" points="74.8799,384.48 74.8799,32.3999" stroke-linecap="butt" stroke="#262626" stroke-width="0.5" stroke-linejoin="miter"/>
   <polyline stroke-opacity="0.15" stroke-dasharray="16,0" fill="none" points="164.16,384.48 164.16,32.3999" stroke-linecap="butt" stroke="#262626" stroke-width="0.5" stroke-linejoin="miter"/>
   <polyline stroke-opacity="0.15" stroke-dasharray="16,0" fill="none" points="253.44,384.48 253.44,32.3999" stroke-linecap="butt" stroke="#262626" stroke-width="0.5" stroke-linejoin="miter"/>
   <polyline stroke-opacity="0.15" stroke-dasharray="16,0" fill="none" points="342.72,384.48 342.72,32.3999" stroke-linecap="butt" stroke="#262626" stroke-width="0.5" stroke-linejoin="miter"/>
   <polyline stroke-opacity="0.15" stroke-dasharray="16,0" fill="none" points="432,384.48 432,32.3999" stroke-linecap="butt" stroke="#262626" stroke-width="0.5" stroke-linejoin="miter"/>
   <polyline stroke-opacity="0.15" stroke-dasharray="16,0" fill="none" points="521.28,384.48 521.28,32.3999" stroke-linecap="butt" stroke="#262626" stroke-width="0.5" stroke-linejoin="miter"/>
   <polyline fill="none" points="74.8799,384.48 74.8799,380.015" stroke-linecap="butt" stroke="#262626" stroke-width="0.5" stroke-linejoin="miter"/>
   <polyline fill="none" points="74.8799,32.3999 74.8799,36.8652" stroke-linecap="butt" stroke="#262626" stroke-width="0.5" stroke-linejoin="miter"/>
   <polyline fill="none" points="164.16,384.48 164.16,380.015" stroke-linecap="butt" stroke="#262626" stroke-width="0.5" stroke-linejoin="miter"/>
   <polyline fill="none" points="164.16,32.3999 164.16,36.8652" stroke-linecap="butt" stroke="#262626" stroke-width="0.5" stroke-linejoin="miter"/>
   <polyline fill="none" points="253.44,384.48 253.44,380.015" stroke-linecap="butt" stroke="#262626" stroke-width="0.5" stroke-linejoin="miter"/>
   <polyline fill="none" points="253.44,32.3999 253.44,36.8652" stroke-linecap="butt" stroke="#262626" stroke-width="0.5" stroke-linejoin="miter"/>
   <polyline fill="none" points="342.72,384.48 342.72,380.015" stroke-linecap="butt" stroke="#262626" stroke-width="0.5" stroke-linejoin="miter"/>
   <polyline fill="none" points="342.72,32.3999 342.72,36.8652" stroke-linecap="butt" stroke="#262626" stroke-width="0.5" stroke-linejoin="miter"/>
   <polyline fill="none" points="432,384.48 432,380.015" stroke-linecap="butt" stroke="#262626" stroke-width="0.5" stroke-linejoin="miter"/>
   <polyline fill="none" points="432,32.3999 432,36.8652" stroke-linecap="butt" stroke="#262626" stroke-width="0.5" stroke-linejoin="miter"/>
   <polyline fill="none" points="521.28,384.48 521.28,380.015" stroke-linecap="butt" stroke="#262626" stroke-width="0.5" stroke-linejoin="miter"/>
   <polyline fill="none" points="521.28,32.3999 521.28,36.8652" stroke-linecap="butt" stroke="#262626" stroke-width="0.5" stroke-linejoin="miter"/>
   <text font-family="FreeSans" font-weight="normal" font-style="normal" transform="translate(71.88,399.982) rotate(-0,3,-8)" font-size="10" xml:space="preserve">
    <tspan fill="rgb(38,38,38)" x="0 " y="-0">0</tspan>
   </text>
   <text font-family="FreeSans" font-weight="normal" font-style="normal" transform="translate(161.16,399.982) rotate(-0,3,-8)" font-size="10" xml:space="preserve">
    <tspan fill="rgb(38,38,38)" x="0 " y="-0">2</tspan>
   </text>
   <text font-family="FreeSans" font-weight="normal" font-style="normal" transform="translate(250.44,399.982) rotate(-0,3,-8)" font-size="10" xml:space="preserve">
    <tspan fill="rgb(38,38,38)" x="0 " y="-0">4</tspan>
   </text>
   <text font-family="FreeSans" font-weight="normal" font-style="normal" transform="translate(339.72,399.982) rotate(-0,3,-8)" font-size="10" xml:space="preserve">
    <tspan fill="rgb(38,38,38)" x="0 " y="-0">6</tspan>
   </text>
   <text font-family="FreeSans" font-weight="normal" font-style="normal" transform="translate(429,399.982) rotate(-0,3,-8)" font-size="10" xml:space="preserve">
    <tspan fill="rgb(38,38,38)" x="0 " y="-0">8</tspan>
   </text>
   <text font-family="FreeSans" font-weight="normal" font-style="normal" transform="translate(515.28,399.982) rotate(-0,6,-8)" font-size="10" xml:space="preserve">
    <tspan fill="rgb(38,38,38)" x="0 6 " y="-0">10</tspan>
   </text>
   <polyline stroke-opacity="0.15" stroke-dasharray="16,0" fill="none" points="74.8799,384.48 521.28,384.48" stroke-linecap="butt" stroke="#262626" stroke-width="0.5" stroke-linejoin="miter"/>
   <polyline stroke-opacity="0.15" stroke-dasharray="16,0" fill="none" points="74.8799,314.064 521.28,314.064" stroke-linecap="butt" stroke="#262626" stroke-width="0.5" stroke-linejoin="miter"/>
   <polyline stroke-opacity="0.15" stroke-dasharray="16,0" fill="none" points="74.8799,243.648 521.28,243.648" stroke-linecap="butt" stroke="#262626" stroke-width="0.5" stroke-linejoin="miter"/>
   <polyline stroke-opacity="0.15" stroke-dasharray="16,0" fill="none" points="74.8799,173.232 521.28,173.232" stroke-linecap="butt" stroke="#262626" stroke-width="0.5" stroke-linejoin="miter"/>
   <polyline stroke-opacity="0.15" stroke-dasharray="16,0" fill="none" points="74.8799,102.816 521.28,102.816" stroke-linecap="butt" stroke="#262626" stroke-width="0.5" stroke-linejoin="miter"/>
   <polyline stroke-opacity="0.15" stroke-dasharray="16,0" fill="none" points="74.8799,32.3999 521.28,32.3999" stroke-linecap="butt" stroke="#262626" stroke-width="0.5" stroke-linejoin="miter"/>
   <polyline fill="none" points="74.8799,384.48 79.3481,384.48" stroke-linecap="butt" stroke="#262626" stroke-width="0.5" stroke-linejoin="miter"/>
   <polyline fill="none" points="521.28,384.48 516.812,384.48" stroke-linecap="butt" stroke="#262626" stroke-width="0.5" stroke-linejoin="miter"/>
   <polyline fill="none" points="74.8799,314.064 79.3481,314.064" stroke-linecap="butt" stroke="#262626" stroke-width="0.5" stroke-linejoin="miter"/>
   <polyline fill="none" points="521.28,314.064 516.812,314.064" stroke-linecap="butt" stroke="#262626" stroke-width="0.5" stroke-linejoin="miter"/>
   <polyline fill="none" points="74.8799,243.648 79.3481,243.648" stroke-linecap="butt" stroke="#262626" stroke-width="0.5" stroke-linejoin="miter"/>
   <polyline fill="none" points="521.28,243.648 516.812,243.648" stroke-linecap="butt" stroke="#262626" stroke-width="0.5" stroke-linejoin="miter"/>
   <polyline fill="none" points="74.8799,173.232 79.3481,173.232" stroke-linecap="butt" stroke="#262626" stroke-width="0.5" stroke-linejoin="miter"/>
   <polyline fill="none" points="521.28,173.232 516.812,173.232" stroke-linecap="butt" stroke="#262626" stroke-width="0.5" stroke-linejoin="miter"/>
   <polyline fill="none" points="74.8799,102.816 79.3481,102.816" stroke-linecap="butt" stroke="#262626" stroke-width="0.5" stroke-linejoin="miter"/>
   <polyline fill="none" points="521.28,102.816 516.812,102.816" stroke-linecap="butt" stroke="#262626" stroke-width="0.5" stroke-linejoin="miter"/>
   <polyline fill="none" points="74.8799,32.3999 79.3481,32.3999" stroke-linecap="butt" stroke="#262626" stroke-width="0.5" stroke-linejoin="miter"/>
   <polyline fill="none" points="521.28,32.3999 516.812,32.3999" stroke-linecap="butt" stroke="#262626" stroke-width="0.5" stroke-linejoin="miter"/>
   <text font-family="FreeSans" font-weight="normal" font-style="normal" transform="translate(51.8755,388.48) rotate(-0,18,-4)" font-size="10" xml:space="preserve">
    <tspan fill="rgb(38,38,38)" x="0 3 9 12 " y="-0">-1.5</tspan>
   </text>
   <text font-family="FreeSans" font-weight="normal" font-style="normal" transform="translate(60.8755,318.064) rotate(-0,9,-4)" font-size="10" xml:space="preserve">
    <tspan fill="rgb(38,38,38)" x="0 3 " y="-0">-1</tspan>
   </text>
   <text font-family="FreeSans" font-weight="normal" font-style="normal" transform="translate(51.8755,247.648) rotate(-0,18,-4)" font-size="10" xml:space="preserve">
    <tspan fill="rgb(38,38,38)" x="0 3 9 12 " y="-0">-0.5</tspan>
   </text>
   <text font-family="FreeSans" font-weight="normal" font-style="normal" transform="translate(63.8755,177.232) rotate(-0,6,-4)" font-size="10" xml:space="preserve">
    <tspan fill="rgb(38,38,38)" x="0 " y="-0">0</tspan>
   </text>
   <text font-family="FreeSans" font-weight="normal" font-style="normal" transform="translate(54.8755,106.816) rotate(-0,15,-4)" font-size="10" xml:space="preserve">
    <tspan fill="rgb(38,38,38)" x="0 6 9 " y="-0">0.5</tspan>
   </text>
   <text font-family="FreeSans" font-weight="normal" font-style="normal" transform="translate(63.8755,36.4) rotate(-0,6,-4)" font-size="10" xml:space="preserve">
    <tspan fill="rgb(38,38,38)" x="0 " y="-0">1</tspan>
   </text>
   <polyline stroke-dasharray="16,0" fill="none" points="74.8799,384.48 521.28,384.48" stroke-linecap="square" stroke="#262626" stroke-width="0.5" stroke-linejoin="miter"/>
   <polyline stroke-dasharray="16,0" fill="none" points="74.8799,32.3999 521.28,32.3999" stroke-linecap="square" stroke="#262626" stroke-width="0.5" stroke-linejoin="miter"/>
   <polyline stroke-dasharray="16,0" fill="none" points="74.8799,384.48 74.8799,32.3999" stroke-linecap="square" stroke="#262626" stroke-width="0.5" stroke-linejoin="miter"/>
   <polyline stroke-dasharray="16,0" fill="none" points="521.28,384.48 521.28,32.3999" stroke-linecap="square" stroke="#262626" stroke-width="0.5" stroke-linejoin="miter"/>
   <polyline fill="none" points="119.52,267.119 164.16,253.959 208.8,156.88 253.44,151.134 298.08,149.591 342.72,147.894 387.36,146.665 432,143.982 476.64,141.865" stroke-linecap="butt" stroke="#0071bc" stroke-width="0.5" stroke-linejoin="round"/>
   <polyline fill="none" points="119.52,79.3433 164.16,277.43 208.8,180.349 253.44,174.609 298.08,173.067 342.72,171.369 387.36,170.134 432,167.448 476.64,165.34" stroke-linecap="butt" stroke="#d85218" stroke-width="0.5" stroke-linejoin="round"/>
   <polyline fill="none" points="122.52,267.119 121.947,268.882 120.447,269.972 118.593,269.972 117.093,268.882 116.52,267.119 117.093,265.356 118.593,264.266 120.447,264.266 121.947,265.356 122.52,267.119" stroke-linecap="round" stroke="#ecb01f" stroke-width="0.5" stroke-linejoin="round"/>
   <polyline fill="none" points="167.16,253.959 166.587,255.723 165.087,256.812 163.233,256.812 161.733,255.723 161.16,253.959 161.733,252.196 163.233,251.106 165.087,251.106 166.587,252.196 167.16,253.959" stroke-linecap="round" stroke="#ecb01f" stroke-width="0.5" stroke-linejoin="round"/>
   <polyline fill="none" points="211.8,156.88 211.227,158.643 209.727,159.733 207.873,159.733 206.373,158.643 205.8,156.88 206.373,155.116 207.873,154.026 209.727,154.026 211.227,155.116 211.8,156.88" stroke-linecap="round" stroke="#ecb01f" stroke-width="0.5" stroke-linejoin="round"/>
   <polyline fill="none" points="256.44,151.134 255.867,152.897 254.367,153.987 252.513,153.987 251.013,152.897 250.44,151.134 251.013,149.371 252.513,148.281 254.367,148.281 255.867,149.371 256.44,151.134" stroke-linecap="round" stroke="#ecb01f" stroke-width="0.5" stroke-linejoin="round"/>
   <polyline fill="none" points="301.08,149.591 300.507,151.354 299.007,152.444 297.153,152.444 295.653,151.354 295.08,149.591 295.653,147.828 297.153,146.738 299.007,146.738 300.507,147.828 301.08,149.591" stroke-linecap="round" stroke="#ecb01f" stroke-width="0.5" stroke-linejoin="round"/>
   <polyline fill="none" points="345.72,147.894 345.147,149.657 343.647,150.747 341.793,150.747 340.293,149.657 339.72,147.894 340.293,146.13 341.793,145.04 343.647,145.04 345.147,146.13 345.72,147.894" stroke-linecap="round" stroke="#ecb01f" stroke-width="0.5" stroke-linejoin="round"/>
   <polyline fill="none" points="390.36,146.665 389.787,148.428 388.287,149.518 386.433,149.518 384.933,148.428 384.36,146.665 384.933,144.901 386.433,143.811 388.287,143.811 389.787,144.901 390.36,146.665" stroke-linecap="round" stroke="#ecb01f" stroke-width="0.5" stroke-linejoin="round"/>
   <polyline fill="none" points="435,143.982 434.427,145.746 432.927,146.835 431.073,146.835 429.573,145.746 429,143.982 429.573,142.219 431.073,141.129 432.927,141.129 434.427,142.219 435,143.982" stroke-linecap="round" stroke="#ecb01f" stroke-width="0.5" stroke-linejoin="round"/>
   <polyline fill="none" points="479.64,141.865 479.067,143.628 477.567,144.718 475.713,144.718 474.213,143.628 473.64,141.865 474.213,140.102 475.713,139.012 477.567,139.012 479.067,140.102 479.64,141.865" stroke-linecap="round" stroke="#ecb01f" stroke-width="0.5" stroke-linejoin="round"/>
   <polyline fill="none" points="122.52,79.3433 121.947,81.1064 120.447,82.1963 118.593,82.1963 117.093,81.1064 116.52,79.3433 117.093,77.5796 118.593,76.4897 120.447,76.4897 121.947,77.5796 122.52,79.3433" stroke-linecap="round" stroke="#7d2e8d" stroke-width="0.5" stroke-linejoin="round"/>
   <polyline fill="none" points="167.16,277.43 166.587,279.193 165.087,280.283 163.233,280.283 161.733,279.193 161.16,277.43 161.733,275.667 163.233,274.577 165.087,274.577 166.587,275.667 167.16,277.43" stroke-linecap="round" stroke="#7d2e8d" stroke-width="0.5" stroke-linejoin="round"/>
   <polyline fill="none" points="211.8,180.349 211.227,182.112 209.727,183.202 207.873,183.202 206.373,182.112 205.8,180.349 206.373,178.585 207.873,177.496 209.727,177.496 211.227,178.585 211.8,180.349" stroke-linecap="round" stroke="#7d2e8d" stroke-width="0.5" stroke-linejoin="round"/>
   <polyline fill="none" points="256.44,174.609 255.867,176.373 254.367,177.462 252.513,177.462 251.013,176.373 250.44,174.609 251.013,172.846 252.513,171.756 254.367,171.756 255.867,172.846 256.44,174.609" stroke-linecap="round" stroke="#7d2e8d" stroke-width="0.5" stroke-linejoin="round"/>
   <polyline fill="none" points="301.08,173.067 300.507,174.831 299.007,175.92 297.153,175.92 295.653,174.831 295.08,173.067 295.653,171.304 297.153,170.214 299.007,170.214 300.507,171.304 301.08,173.067" stroke-linecap="round" stroke="#7d2e8d" stroke-width="0.5" stroke-linejoin="round"/>
   <polyline fill="none" points="345.72,171.369 345.147,173.132 343.647,174.222 341.793,174.222 340.293,173.132 339.72,171.369 340.293,169.605 341.793,168.515 343.647,168.515 345.147,169.605 345.72,171.369" stroke-linecap="round" stroke="#7d2e8d" stroke-width="0.5" stroke-linejoin="round"/>
   <polyline fill="none" points="390.36,170.134 389.787,171.897 388.287,172.987 386.433,172.987 384.933,171.897 384.36,170.134 384.933,168.371 386.433,167.281 388.287,167.281 389.787,168.371 390.36,170.134" stroke-linecap="round" stroke="#7d2e8d" stroke-width="0.5" stroke-linejoin="round"/>
   <polyline fill="none" points="435,167.448 434.427,169.211 432.927,170.301 431.073,170.301 429.573,169.211 429,167.448 429.573,165.685 431.073,164.595 432.927,164.595 434.427,165.685 435,167.448" stroke-linecap="round" stroke="#7d2e8d" stroke-width="0.5" stroke-linejoin="round"/>
   <polyline fill="none" points="479.64,165.34 479.067,167.103 477.567,168.193 475.713,168.193 474.213,167.103 473.64,165.34 474.213,163.576 475.713,162.486 477.567,162.486 479.067,163.576 479.64,165.34" stroke-linecap="round" stroke="#7d2e8d" stroke-width="0.5" stroke-linejoin="round"/>
   <polyline fill="none" points="122.52,160.072 121.947,161.835 120.447,162.925 118.593,162.925 117.093,161.835 116.52,160.072 117.093,158.309 118.593,157.219 120.447,157.219 121.947,158.309 122.52,160.072" stroke-linecap="round" stroke="#76ab2f" stroke-width="0.5" stroke-linejoin="round"/>
   <polyline fill="none" points="167.16,76.1523 166.587,77.9155 165.087,79.0054 163.233,79.0054 161.733,77.9155 161.16,76.1523 161.733,74.3892 163.233,73.2993 165.087,73.2993 166.587,74.3892 167.16,76.1523" stroke-linecap="round" stroke="#76ab2f" stroke-width="0.5" stroke-linejoin="round"/>
   <polyline fill="none" points="211.8,167.486 211.227,169.25 209.727,170.34 207.873,170.34 206.373,169.25 205.8,167.486 206.373,165.723 207.873,164.633 209.727,164.633 211.227,165.723 211.8,167.486" stroke-linecap="round" stroke="#76ab2f" stroke-width="0.5" stroke-linejoin="round"/>
   <polyline fill="none" points="256.44,171.688 255.867,173.452 254.367,174.542 252.513,174.542 251.013,173.452 250.44,171.688 251.013,169.925 252.513,168.835 254.367,168.835 255.867,169.925 256.44,171.688" stroke-linecap="round" stroke="#76ab2f" stroke-width="0.5" stroke-linejoin="round"/>
   <polyline fill="none" points="301.08,171.535 300.507,173.298 299.007,174.388 297.153,174.388 295.653,173.298 295.08,171.535 295.653,169.771 297.153,168.681 299.007,168.681 300.507,169.771 301.08,171.535" stroke-linecap="round" stroke="#76ab2f" stroke-width="0.5" stroke-linejoin="round"/>
   <polyline fill="none" points="345.72,172.003 345.147,173.766 343.647,174.856 341.793,174.856 340.293,173.766 339.72,172.003 340.293,170.24 341.793,169.15 343.647,169.15 345.147,170.24 345.72,172.003" stroke-linecap="round" stroke="#76ab2f" stroke-width="0.5" stroke-linejoin="round"/>
   <polyline fill="none" points="390.36,170.55 389.787,172.313 388.287,173.403 386.433,173.403 384.933,172.313 384.36,170.55 384.933,168.787 386.433,167.697 388.287,167.697 389.787,168.787 390.36,170.55" stroke-linecap="round" stroke="#76ab2f" stroke-width="0.5" stroke-linejoin="round"/>
   <polyline fill="none" points="435,171.115 434.427,172.878 432.927,173.968 431.073,173.968 429.573,172.878 429,171.115 429.573,169.352 431.073,168.262 432.927,168.262 434.427,169.352 435,171.115" stroke-linecap="round" stroke="#76ab2f" stroke-width="0.5" stroke-linejoin="round"/>
   <polyline fill="none" points="119.52,160.072 164.16,76.1523 208.8,167.486 253.44,171.689 298.08,171.535 342.72,172.003 387.36,170.55 432,171.115" stroke-linecap="butt" stroke="#4cbded" stroke-width="0.5" stroke-linejoin="round"/>
   <polyline fill="none" points="119.52,371.318 164.16,76.1509 208.8,167.493 253.44,171.69 298.08,171.533 342.72,171.998 387.36,170.546 432,171.124" stroke-linecap="butt" stroke="#a1132e" stroke-width="0.5" stroke-linejoin="round"/>
   <polyline fill="none" points="122.52,371.318 121.947,373.082 120.447,374.172 118.593,374.172 117.093,373.082 116.52,371.318 117.093,369.555 118.593,368.465 120.447,368.465 121.947,369.555 122.52,371.318" stroke-linecap="round" stroke="#0071bc" stroke-width="0.5" stroke-linejoin="round"/>
   <polyline fill="none" points="167.16,76.1509 166.587,77.9146 165.087,79.0044 163.233,79.0044 161.733,77.9146 161.16,76.1509 161.733,74.3877 163.233,73.2979 165.087,73.2979 166.587,74.3877 167.16,76.1509" stroke-linecap="round" stroke="#0071bc" stroke-width="0.5" stroke-linejoin="round"/>
   <polyline fill="none" points="211.8,167.493 211.227,169.256 209.727,170.346 207.873,170.346 206.373,169.256 205.8,167.493 206.373,165.729 207.873,164.64 209.727,164.64 211.227,165.729 211.8,167.493" stroke-linecap="round" stroke="#0071bc" stroke-width="0.5" stroke-linejoin="round"/>
   <polyline fill="none" points="256.44,171.69 255.867,173.453 254.367,174.543 252.513,174.543 251.013,173.453 250.44,171.69 251.013,169.926 252.513,168.836 254.367,168.836 255.867,169.926 256.44,171.69" stroke-linecap="round" stroke="#0071bc" stroke-width="0.5" stroke-linejoin="round"/>
   <polyline fill="none" points="301.08,171.533 300.507,173.297 299.007,174.387 297.153,174.387 295.653,173.297 295.08,171.533 295.653,169.77 297.153,168.68 299.007,168.68 300.507,169.77 301.08,171.533" stroke-linecap="round" stroke="#0071bc" stroke-width="0.5" stroke-linejoin="round"/>
   <polyline fill="none" points="345.72,171.998 345.147,173.761 343.647,174.851 341.793,174.851 340.293,173.761 339.72,171.998 340.293,170.234 341.793,169.144 343.647,169.144 345.147,170.234 345.72,171.998" stroke-linecap="round" stroke="#0071bc" stroke-width="0.5" stroke-linejoin="round"/>
   <polyline fill="none" points="390.36,170.546 389.787,172.31 388.287,173.399 386.433,173.399 384.933,172.31 384.36,170.546 384.933,168.783 386.433,167.693 388.287,167.693 389.787,168.783 390.36,170.546" stroke-linecap="round" stroke="#0071bc" stroke-width="0.5" stroke-linejoin="round"/>
   <polyline fill="none" points="435,171.124 434.427,172.887 432.927,173.977 431.073,173.977 429.573,172.887 429,171.124 429.573,169.36 431.073,168.271 432.927,168.271 434.427,169.36 435,171.124" stroke-linecap="round" stroke="#0071bc" stroke-width="0.5" stroke-linejoin="round"/>
  </g>
 </g>
</svg>
